<?xml version="1.0" encoding="UTF-8" standalone="no"?>
<!DOCTYPE svg PUBLIC "-//W3C//DTD SVG 1.1//EN"
 "http://www.w3.org/Graphics/SVG/1.1/DTD/svg11.dtd">
<!-- Generated by graphviz version 3.0.0 (20220226.1711)
 -->
<!-- Pages: 1 -->
<svg width="177pt" height="332pt"
 viewBox="0.00 0.00 177.14 332.00" xmlns="http://www.w3.org/2000/svg" xmlns:xlink="http://www.w3.org/1999/xlink">
<g id="graph0" class="graph" transform="scale(1 1) rotate(0) translate(4 328)">
<polygon fill="white" stroke="transparent" points="-4,4 -4,-328 173.14,-328 173.14,4 -4,4"/>
<!-- bc8c8074&#45;e429&#45;11ec&#45;8c11&#45;68545aa505d6 -->
<g id="node1" class="node">
<title>bc8c8074&#45;e429&#45;11ec&#45;8c11&#45;68545aa505d6</title>
<ellipse fill="none" stroke="black" cx="62.39" cy="-306" rx="50.09" ry="18"/>
<text text-anchor="middle" x="62.39" y="-302.3" font-family="Times New Roman,serif" font-size="14.00">InputNode</text>
</g>
<!-- bc8c8076&#45;e429&#45;11ec&#45;a629&#45;68545aa505d6 -->
<g id="node3" class="node">
<title>bc8c8076&#45;e429&#45;11ec&#45;a629&#45;68545aa505d6</title>
<ellipse fill="none" stroke="black" cx="62.39" cy="-162" rx="62.29" ry="18"/>
<text text-anchor="middle" x="62.39" y="-158.3" font-family="Times New Roman,serif" font-size="14.00">AdditionNode</text>
</g>
<!-- bc8c8074&#45;e429&#45;11ec&#45;8c11&#45;68545aa505d6&#45;&gt;bc8c8076&#45;e429&#45;11ec&#45;a629&#45;68545aa505d6 -->
<g id="edge1" class="edge">
<title>bc8c8074&#45;e429&#45;11ec&#45;8c11&#45;68545aa505d6&#45;&gt;bc8c8076&#45;e429&#45;11ec&#45;a629&#45;68545aa505d6</title>
<path fill="none" stroke="black" d="M51.62,-288.08C45.86,-278.03 39.36,-264.78 36.39,-252 32.78,-236.41 32.78,-231.59 36.39,-216 38.55,-206.72 42.57,-197.18 46.82,-188.81"/>
<polygon fill="black" stroke="black" points="49.94,-190.38 51.62,-179.92 43.79,-187.05 49.94,-190.38"/>
</g>
<!-- bc8c8077&#45;e429&#45;11ec&#45;94f5&#45;68545aa505d6 -->
<g id="node4" class="node">
<title>bc8c8077&#45;e429&#45;11ec&#45;94f5&#45;68545aa505d6</title>
<ellipse fill="none" stroke="black" cx="107.39" cy="-234" rx="61.99" ry="18"/>
<text text-anchor="middle" x="107.39" y="-230.3" font-family="Times New Roman,serif" font-size="14.00">DropoutNode</text>
</g>
<!-- bc8c8074&#45;e429&#45;11ec&#45;8c11&#45;68545aa505d6&#45;&gt;bc8c8077&#45;e429&#45;11ec&#45;94f5&#45;68545aa505d6 -->
<g id="edge2" class="edge">
<title>bc8c8074&#45;e429&#45;11ec&#45;8c11&#45;68545aa505d6&#45;&gt;bc8c8077&#45;e429&#45;11ec&#45;94f5&#45;68545aa505d6</title>
<path fill="none" stroke="black" d="M73.06,-288.41C78.42,-280.08 85.02,-269.8 91.01,-260.49"/>
<polygon fill="black" stroke="black" points="94.03,-262.26 96.49,-251.96 88.14,-258.48 94.03,-262.26"/>
</g>
<!-- bc8c8075&#45;e429&#45;11ec&#45;ab94&#45;68545aa505d6 -->
<g id="node2" class="node">
<title>bc8c8075&#45;e429&#45;11ec&#45;ab94&#45;68545aa505d6</title>
<ellipse fill="none" stroke="black" cx="62.39" cy="-18" rx="55.79" ry="18"/>
<text text-anchor="middle" x="62.39" y="-14.3" font-family="Times New Roman,serif" font-size="14.00">OutputNode</text>
</g>
<!-- bc8c8078&#45;e429&#45;11ec&#45;8707&#45;68545aa505d6 -->
<g id="node5" class="node">
<title>bc8c8078&#45;e429&#45;11ec&#45;8707&#45;68545aa505d6</title>
<ellipse fill="none" stroke="black" cx="62.39" cy="-90" rx="53.09" ry="18"/>
<text text-anchor="middle" x="62.39" y="-86.3" font-family="Times New Roman,serif" font-size="14.00">DenseNode</text>
</g>
<!-- bc8c8076&#45;e429&#45;11ec&#45;a629&#45;68545aa505d6&#45;&gt;bc8c8078&#45;e429&#45;11ec&#45;8707&#45;68545aa505d6 -->
<g id="edge3" class="edge">
<title>bc8c8076&#45;e429&#45;11ec&#45;a629&#45;68545aa505d6&#45;&gt;bc8c8078&#45;e429&#45;11ec&#45;8707&#45;68545aa505d6</title>
<path fill="none" stroke="black" d="M62.39,-143.7C62.39,-135.98 62.39,-126.71 62.39,-118.11"/>
<polygon fill="black" stroke="black" points="65.89,-118.1 62.39,-108.1 58.89,-118.1 65.89,-118.1"/>
</g>
<!-- bc8c8077&#45;e429&#45;11ec&#45;94f5&#45;68545aa505d6&#45;&gt;bc8c8076&#45;e429&#45;11ec&#45;a629&#45;68545aa505d6 -->
<g id="edge4" class="edge">
<title>bc8c8077&#45;e429&#45;11ec&#45;94f5&#45;68545aa505d6&#45;&gt;bc8c8076&#45;e429&#45;11ec&#45;a629&#45;68545aa505d6</title>
<path fill="none" stroke="black" d="M96.5,-216.05C91.14,-207.71 84.57,-197.49 78.63,-188.25"/>
<polygon fill="black" stroke="black" points="81.54,-186.31 73.19,-179.79 75.65,-190.09 81.54,-186.31"/>
</g>
<!-- bc8c8078&#45;e429&#45;11ec&#45;8707&#45;68545aa505d6&#45;&gt;bc8c8075&#45;e429&#45;11ec&#45;ab94&#45;68545aa505d6 -->
<g id="edge5" class="edge">
<title>bc8c8078&#45;e429&#45;11ec&#45;8707&#45;68545aa505d6&#45;&gt;bc8c8075&#45;e429&#45;11ec&#45;ab94&#45;68545aa505d6</title>
<path fill="none" stroke="black" d="M62.39,-71.7C62.39,-63.98 62.39,-54.71 62.39,-46.11"/>
<polygon fill="black" stroke="black" points="65.89,-46.1 62.39,-36.1 58.89,-46.1 65.89,-46.1"/>
</g>
</g>
</svg>
