<?xml version="1.0" encoding="UTF-8" standalone="no"?>
<!DOCTYPE svg PUBLIC "-//W3C//DTD SVG 1.1//EN"
 "http://www.w3.org/Graphics/SVG/1.1/DTD/svg11.dtd">
<!-- Generated by graphviz version 3.0.0 (20220226.1711)
 -->
<!-- Pages: 1 -->
<svg width="128pt" height="260pt"
 viewBox="0.00 0.00 127.59 260.00" xmlns="http://www.w3.org/2000/svg" xmlns:xlink="http://www.w3.org/1999/xlink">
<g id="graph0" class="graph" transform="scale(1 1) rotate(0) translate(4 256)">
<polygon fill="white" stroke="transparent" points="-4,4 -4,-256 123.59,-256 123.59,4 -4,4"/>
<!-- 1261 -->
<g id="node1" class="node">
<title>1261</title>
<ellipse fill="none" stroke="black" cx="59.79" cy="-234" rx="50.09" ry="18"/>
<text text-anchor="middle" x="59.79" y="-230.3" font-family="Times New Roman,serif" font-size="14.00">InputNode</text>
</g>
<!-- 1263 -->
<g id="node3" class="node">
<title>1263</title>
<ellipse fill="none" stroke="black" cx="59.79" cy="-162" rx="59.59" ry="18"/>
<text text-anchor="middle" x="59.79" y="-158.3" font-family="Times New Roman,serif" font-size="14.00">Conv2dNode</text>
</g>
<!-- 1261&#45;&gt;1263 -->
<g id="edge1" class="edge">
<title>1261&#45;&gt;1263</title>
<path fill="none" stroke="black" d="M59.79,-215.7C59.79,-207.98 59.79,-198.71 59.79,-190.11"/>
<polygon fill="black" stroke="black" points="63.29,-190.1 59.79,-180.1 56.29,-190.1 63.29,-190.1"/>
</g>
<!-- 1262 -->
<g id="node2" class="node">
<title>1262</title>
<ellipse fill="none" stroke="black" cx="59.79" cy="-18" rx="55.79" ry="18"/>
<text text-anchor="middle" x="59.79" y="-14.3" font-family="Times New Roman,serif" font-size="14.00">OutputNode</text>
</g>
<!-- 1264 -->
<g id="node4" class="node">
<title>1264</title>
<ellipse fill="none" stroke="black" cx="59.79" cy="-90" rx="59.59" ry="18"/>
<text text-anchor="middle" x="59.79" y="-86.3" font-family="Times New Roman,serif" font-size="14.00">Conv2dNode</text>
</g>
<!-- 1263&#45;&gt;1264 -->
<g id="edge2" class="edge">
<title>1263&#45;&gt;1264</title>
<path fill="none" stroke="black" d="M59.79,-143.7C59.79,-135.98 59.79,-126.71 59.79,-118.11"/>
<polygon fill="black" stroke="black" points="63.29,-118.1 59.79,-108.1 56.29,-118.1 63.29,-118.1"/>
</g>
<!-- 1264&#45;&gt;1262 -->
<g id="edge3" class="edge">
<title>1264&#45;&gt;1262</title>
<path fill="none" stroke="black" d="M59.79,-71.7C59.79,-63.98 59.79,-54.71 59.79,-46.11"/>
<polygon fill="black" stroke="black" points="63.29,-46.1 59.79,-36.1 56.29,-46.1 63.29,-46.1"/>
</g>
</g>
</svg>
